<?xml version="1.0" encoding="UTF-8"?>
<svg width="64" height="64" viewBox="0 0 64 64" xmlns="http://www.w3.org/2000/svg">
  <defs>
    <!-- Background gradient -->
    <linearGradient id="bgGrad" x1="0%" y1="0%" x2="100%" y2="100%">
      <stop offset="0%" style="stop-color:#2563eb;stop-opacity:1" />
      <stop offset="100%" style="stop-color:#1e40af;stop-opacity:1" />
    </linearGradient>
    
    <!-- Document gradient -->
    <linearGradient id="docGrad" x1="0%" y1="0%" x2="100%" y2="100%">
      <stop offset="0%" style="stop-color:#ffffff;stop-opacity:1" />
      <stop offset="100%" style="stop-color:#f8fafc;stop-opacity:1" />
    </linearGradient>
  </defs>
  
  <!-- Main background circle -->
  <circle cx="32" cy="32" r="30" fill="url(#bgGrad)" stroke="#1e40af" stroke-width="1"/>
  
  <!-- Document -->
  <rect x="18" y="22" width="28" height="32" rx="3" ry="3" fill="url(#docGrad)" stroke="#e2e8f0" stroke-width="1"/>
  
  <!-- Document header -->
  <rect x="18" y="22" width="28" height="6" rx="3" ry="3" fill="#f1f5f9"/>
  <rect x="18" y="28" width="28" height="26" fill="url(#docGrad)"/>
  
  <!-- Text lines -->
  <rect x="21" y="32" width="22" height="1.5" rx="0.75" fill="#cbd5e1"/>
  <rect x="21" y="36" width="18" height="1.5" rx="0.75" fill="#cbd5e1"/>
  <rect x="21" y="40" width="20" height="1.5" rx="0.75" fill="#cbd5e1"/>
  <rect x="21" y="44" width="16" height="1.5" rx="0.75" fill="#cbd5e1"/>
  <rect x="21" y="48" width="19" height="1.5" rx="0.75" fill="#cbd5e1"/>
  
  <!-- Microphone -->
  <ellipse cx="32" cy="12" rx="4" ry="6" fill="#374151" stroke="#111827" stroke-width="0.5"/>
  <rect x="29" y="9" width="6" height="6" rx="3" fill="#4b5563"/>
  <rect x="30" y="18" width="1" height="4" fill="#374151"/>
  <rect x="33" y="18" width="1" height="4" fill="#374151"/>
  
  <!-- Sound waves -->
  <path d="M 8 32 Q 14 28 8 36" stroke="#60a5fa" stroke-width="1.5" fill="none" opacity="0.7"/>
  <path d="M 5 32 Q 12 27 5 37" stroke="#60a5fa" stroke-width="1" fill="none" opacity="0.5"/>
  
  <!-- AI indicator -->
  <circle cx="50" cy="26" r="4" fill="#8b5cf6"/>
  <circle cx="50" cy="26" r="2" fill="none" stroke="#ffffff" stroke-width="0.75"/>
  <circle cx="48" cy="24" r="0.5" fill="#ffffff"/>
  <circle cx="52" cy="24" r="0.5" fill="#ffffff"/>
  <circle cx="48" cy="28" r="0.5" fill="#ffffff"/>
  <circle cx="52" cy="28" r="0.5" fill="#ffffff"/>
  
  <!-- Data flow -->
  <path d="M 32 18 Q 35 20 35 26" stroke="#60a5fa" stroke-width="1" fill="none" opacity="0.6" stroke-dasharray="2,1"/>
  <path d="M 46 28 Q 48 26 48 26" stroke="#8b5cf6" stroke-width="1" fill="none" opacity="0.6" stroke-dasharray="2,1"/>
</svg> 